<?xml version="1.0" encoding="utf-8" standalone="no"?>
<!DOCTYPE svg PUBLIC "-//W3C//DTD SVG 1.1//EN"
  "http://www.w3.org/Graphics/SVG/1.1/DTD/svg11.dtd">
<svg xmlns:xlink="http://www.w3.org/1999/xlink" width="864pt" height="864pt" viewBox="0 0 864 864" xmlns="http://www.w3.org/2000/svg" version="1.1">
 <metadata>
  <rdf:RDF xmlns:dc="http://purl.org/dc/elements/1.1/" xmlns:cc="http://creativecommons.org/ns#" xmlns:rdf="http://www.w3.org/1999/02/22-rdf-syntax-ns#">
   <cc:Work>
    <dc:type rdf:resource="http://purl.org/dc/dcmitype/StillImage"/>
    <dc:date>2024-08-22T12:52:55.712736</dc:date>
    <dc:format>image/svg+xml</dc:format>
    <dc:creator>
     <cc:Agent>
      <dc:title>Matplotlib v3.9.2, https://matplotlib.org/</dc:title>
     </cc:Agent>
    </dc:creator>
   </cc:Work>
  </rdf:RDF>
 </metadata>
 <defs>
  <style type="text/css">*{stroke-linejoin: round; stroke-linecap: butt}</style>
 </defs>
 <g id="figure_1">
  <g id="patch_1">
   <path d="M 0 864 
L 864 864 
L 864 0 
L 0 0 
z
" style="fill: #ffffff"/>
  </g>
  <g id="axes_1">
   <g id="patch_2">
    <path d="M 775.44 436.32 
C 775.44 392.638115 766.835621 349.380982 750.119288 309.024183 
C 733.402954 268.667384 708.899756 231.995757 678.012 201.108 
C 647.124243 170.220244 610.452616 145.717046 570.095817 129.000712 
C 529.739018 112.284379 486.481885 103.68 442.8 103.68 
C 399.118115 103.68 355.860982 112.284379 315.504183 129.000712 
C 275.147384 145.717046 238.475757 170.220244 207.588 201.108 
C 176.700244 231.995757 152.197046 268.667384 135.480712 309.024183 
C 118.764379 349.380982 110.16 392.638115 110.16 436.32 
C 110.16 480.001885 118.764379 523.259018 135.480712 563.615817 
C 152.197046 603.972616 176.700244 640.644243 207.588 671.532 
C 238.475757 702.419756 275.147384 726.922954 315.504183 743.639288 
C 355.860982 760.355621 399.118115 768.96 442.8 768.96 
C 486.481885 768.96 529.739018 760.355621 570.095817 743.639288 
C 610.452616 726.922954 647.124243 702.419756 678.012 671.532 
C 708.899756 640.644243 733.402954 603.972616 750.119288 563.615817 
C 766.835621 523.259018 775.44 480.001885 775.44 436.32 
M 442.8 436.32 
C 442.8 436.32 442.8 436.32 442.8 436.32 
C 442.8 436.32 442.8 436.32 442.8 436.32 
C 442.8 436.32 442.8 436.32 442.8 436.32 
C 442.8 436.32 442.8 436.32 442.8 436.32 
C 442.8 436.32 442.8 436.32 442.8 436.32 
C 442.8 436.32 442.8 436.32 442.8 436.32 
C 442.8 436.32 442.8 436.32 442.8 436.32 
C 442.8 436.32 442.8 436.32 442.8 436.32 
C 442.8 436.32 442.8 436.32 442.8 436.32 
C 442.8 436.32 442.8 436.32 442.8 436.32 
C 442.8 436.32 442.8 436.32 442.8 436.32 
C 442.8 436.32 442.8 436.32 442.8 436.32 
C 442.8 436.32 442.8 436.32 442.8 436.32 
C 442.8 436.32 442.8 436.32 442.8 436.32 
C 442.8 436.32 442.8 436.32 442.8 436.32 
C 442.8 436.32 442.8 436.32 442.8 436.32 
z
" style="fill: #ffffff"/>
   </g>
   <g id="matplotlib.axis_1"/>
   <g id="matplotlib.axis_2">
    <g id="ytick_1">
     <g id="line2d_1">
      <path d="M 442.8 353.16 
C 453.720471 353.16 464.534754 355.311095 474.623954 359.490178 
C 484.713154 363.669261 493.881061 369.795061 501.603 377.517 
C 509.324939 385.238939 515.450739 394.406846 519.629822 404.496046 
C 523.808905 414.585246 525.96 425.399529 525.96 436.32 
C 525.96 447.240471 523.808905 458.054754 519.629822 468.143954 
C 515.450739 478.233154 509.324939 487.401061 501.603 495.123 
C 493.881061 502.844939 484.713154 508.970739 474.623954 513.149822 
C 464.534754 517.328905 453.720471 519.48 442.8 519.48 
C 431.879529 519.48 421.065246 517.328905 410.976046 513.149822 
C 400.886846 508.970739 391.718939 502.844939 383.997 495.123 
C 376.275061 487.401061 370.149261 478.233154 365.970178 468.143954 
C 361.791095 458.054754 359.64 447.240471 359.64 436.32 
C 359.64 425.399529 361.791095 414.585246 365.970178 404.496046 
C 370.149261 394.406846 376.275061 385.238939 383.997 377.517 
C 391.718939 369.795061 400.886846 363.669261 410.976046 359.490178 
C 421.065246 355.311095 431.879529 353.16 442.8 353.16 
" clip-path="url(#p2e1d076b7b)" style="fill: none; stroke: #b0b0b0; stroke-width: 0.8; stroke-linecap: square"/>
     </g>
    </g>
    <g id="ytick_2">
     <g id="line2d_2">
      <path d="M 442.8 270 
C 464.640942 270 486.269509 274.302189 506.447908 282.660356 
C 526.626308 291.018523 544.962121 303.270122 560.406 318.714 
C 575.849878 334.157879 588.101477 352.493692 596.459644 372.672092 
C 604.817811 392.850491 609.12 414.479058 609.12 436.32 
C 609.12 458.160942 604.817811 479.789509 596.459644 499.967908 
C 588.101477 520.146308 575.849878 538.482121 560.406 553.926 
C 544.962121 569.369878 526.626308 581.621477 506.447908 589.979644 
C 486.269509 598.337811 464.640942 602.64 442.8 602.64 
C 420.959058 602.64 399.330491 598.337811 379.152092 589.979644 
C 358.973692 581.621477 340.637879 569.369878 325.194 553.926 
C 309.750122 538.482121 297.498523 520.146308 289.140356 499.967908 
C 280.782189 479.789509 276.48 458.160942 276.48 436.32 
C 276.48 414.479058 280.782189 392.850491 289.140356 372.672092 
C 297.498523 352.493692 309.750122 334.157879 325.194 318.714 
C 340.637879 303.270122 358.973692 291.018523 379.152092 282.660356 
C 399.330491 274.302189 420.959058 270 442.8 270 
" clip-path="url(#p2e1d076b7b)" style="fill: none; stroke: #b0b0b0; stroke-width: 0.8; stroke-linecap: square"/>
     </g>
    </g>
    <g id="ytick_3">
     <g id="line2d_3">
      <path d="M 442.8 186.84 
C 475.561413 186.84 508.004263 193.293284 538.271863 205.830534 
C 568.539462 218.367784 596.043182 236.745183 619.209 259.911 
C 642.374817 283.076818 660.752216 310.580538 673.289466 340.848137 
C 685.826716 371.115737 692.28 403.558587 692.28 436.32 
C 692.28 469.081413 685.826716 501.524263 673.289466 531.791863 
C 660.752216 562.059462 642.374817 589.563182 619.209 612.729 
C 596.043182 635.894817 568.539462 654.272216 538.271863 666.809466 
C 508.004263 679.346716 475.561413 685.8 442.8 685.8 
C 410.038587 685.8 377.595737 679.346716 347.328137 666.809466 
C 317.060538 654.272216 289.556818 635.894817 266.391 612.729 
C 243.225183 589.563182 224.847784 562.059462 212.310534 531.791863 
C 199.773284 501.524263 193.32 469.081413 193.32 436.32 
C 193.32 403.558587 199.773284 371.115737 212.310534 340.848137 
C 224.847784 310.580538 243.225183 283.076818 266.391 259.911 
C 289.556818 236.745183 317.060538 218.367784 347.328137 205.830534 
C 377.595737 193.293284 410.038587 186.84 442.8 186.84 
" clip-path="url(#p2e1d076b7b)" style="fill: none; stroke: #b0b0b0; stroke-width: 0.8; stroke-linecap: square"/>
     </g>
    </g>
    <g id="ytick_4">
     <g id="line2d_4">
      <path d="M 442.8 103.68 
C 486.481885 103.68 529.739018 112.284379 570.095817 129.000712 
C 610.452616 145.717046 647.124243 170.220244 678.012 201.108 
C 708.899756 231.995757 733.402954 268.667384 750.119288 309.024183 
C 766.835621 349.380982 775.44 392.638115 775.44 436.32 
C 775.44 480.001885 766.835621 523.259018 750.119288 563.615817 
C 733.402954 603.972616 708.899756 640.644243 678.012 671.532 
C 647.124243 702.419756 610.452616 726.922954 570.095817 743.639288 
C 529.739018 760.355621 486.481885 768.96 442.8 768.96 
C 399.118115 768.96 355.860982 760.355621 315.504183 743.639288 
C 275.147384 726.922954 238.475757 702.419756 207.588 671.532 
C 176.700244 640.644243 152.197046 603.972616 135.480712 563.615817 
C 118.764379 523.259018 110.16 480.001885 110.16 436.32 
C 110.16 392.638115 118.764379 349.380982 135.480712 309.024183 
C 152.197046 268.667384 176.700244 231.995757 207.588 201.108 
C 238.475757 170.220244 275.147384 145.717046 315.504183 129.000712 
C 355.860982 112.284379 399.118115 103.68 442.8 103.68 
" clip-path="url(#p2e1d076b7b)" style="fill: none; stroke: #b0b0b0; stroke-width: 0.8; stroke-linecap: square"/>
     </g>
    </g>
   </g>
   <g id="line2d_5">
    <path d="M 442.8 436.32 
L 442.8 103.68 
" clip-path="url(#p2e1d076b7b)" style="fill: none; stroke-dasharray: 5.55,2.4; stroke-dashoffset: 0; stroke: #808080; stroke-width: 1.5"/>
   </g>
   <g id="line2d_6">
    <path d="M 442.8 436.32 
L 775.44 436.32 
" clip-path="url(#p2e1d076b7b)" style="fill: none; stroke-dasharray: 5.55,2.4; stroke-dashoffset: 0; stroke: #808080; stroke-width: 1.5"/>
   </g>
   <g id="line2d_7">
    <path d="M 442.8 436.32 
L 442.8 768.96 
" clip-path="url(#p2e1d076b7b)" style="fill: none; stroke-dasharray: 5.55,2.4; stroke-dashoffset: 0; stroke: #808080; stroke-width: 1.5"/>
   </g>
   <g id="line2d_8">
    <path d="M 442.8 436.32 
L 110.16 436.32 
" clip-path="url(#p2e1d076b7b)" style="fill: none; stroke-dasharray: 5.55,2.4; stroke-dashoffset: 0; stroke: #808080; stroke-width: 1.5"/>
   </g>
   <g id="line2d_9">
    <defs>
     <path id="mdf256c66c1" d="M 0 3 
C 0.795609 3 1.55874 2.683901 2.12132 2.12132 
C 2.683901 1.55874 3 0.795609 3 0 
C 3 -0.795609 2.683901 -1.55874 2.12132 -2.12132 
C 1.55874 -2.683901 0.795609 -3 0 -3 
C -0.795609 -3 -1.55874 -2.683901 -2.12132 -2.12132 
C -2.683901 -1.55874 -3 -0.795609 -3 0 
C -3 0.795609 -2.683901 1.55874 -2.12132 2.12132 
C -1.55874 2.683901 -0.795609 3 0 3 
z
" style="stroke: #1f77b4"/>
    </defs>
    <g clip-path="url(#p2e1d076b7b)">
     <use xlink:href="#mdf256c66c1" x="550.906167" y="249.074626" style="fill: #1f77b4; stroke: #1f77b4"/>
    </g>
   </g>
   <g id="line2d_10">
    <defs>
     <path id="me2e1839840" d="M 0 3 
C 0.795609 3 1.55874 2.683901 2.12132 2.12132 
C 2.683901 1.55874 3 0.795609 3 0 
C 3 -0.795609 2.683901 -1.55874 2.12132 -2.12132 
C 1.55874 -2.683901 0.795609 -3 0 -3 
C -0.795609 -3 -1.55874 -2.683901 -2.12132 -2.12132 
C -2.683901 -1.55874 -3 -0.795609 -3 0 
C -3 0.795609 -2.683901 1.55874 -2.12132 2.12132 
C -1.55874 2.683901 -0.795609 3 0 3 
z
" style="stroke: #ff7f0e"/>
    </defs>
    <g clip-path="url(#p2e1d076b7b)">
     <use xlink:href="#me2e1839840" x="618.341109" y="334.971293" style="fill: #ff7f0e; stroke: #ff7f0e"/>
    </g>
   </g>
   <g id="line2d_11">
    <defs>
     <path id="m6b4b8d76c6" d="M 0 3 
C 0.795609 3 1.55874 2.683901 2.12132 2.12132 
C 2.683901 1.55874 3 0.795609 3 0 
C 3 -0.795609 2.683901 -1.55874 2.12132 -2.12132 
C 1.55874 -2.683901 0.795609 -3 0 -3 
C -0.795609 -3 -1.55874 -2.683901 -2.12132 -2.12132 
C -2.683901 -1.55874 -3 -0.795609 -3 0 
C -3 0.795609 -2.683901 1.55874 -2.12132 2.12132 
C -1.55874 2.683901 -0.795609 3 0 3 
z
" style="stroke: #2ca02c"/>
    </defs>
    <g clip-path="url(#p2e1d076b7b)">
     <use xlink:href="#m6b4b8d76c6" x="578.910639" y="200.569457" style="fill: #2ca02c; stroke: #2ca02c"/>
    </g>
   </g>
   <g id="line2d_12">
    <defs>
     <path id="m6e3c219987" d="M 0 3 
C 0.795609 3 1.55874 2.683901 2.12132 2.12132 
C 2.683901 1.55874 3 0.795609 3 0 
C 3 -0.795609 2.683901 -1.55874 2.12132 -2.12132 
C 1.55874 -2.683901 0.795609 -3 0 -3 
C -0.795609 -3 -1.55874 -2.683901 -2.12132 -2.12132 
C -2.683901 -1.55874 -3 -0.795609 -3 0 
C -3 0.795609 -2.683901 1.55874 -2.12132 2.12132 
C -1.55874 2.683901 -0.795609 3 0 3 
z
" style="stroke: #d62728"/>
    </defs>
    <g clip-path="url(#p2e1d076b7b)">
     <use xlink:href="#m6e3c219987" x="699.792923" y="287.945067" style="fill: #d62728; stroke: #d62728"/>
    </g>
   </g>
   <g id="line2d_13">
    <defs>
     <path id="mc2fb9b9004" d="M 0 3 
C 0.795609 3 1.55874 2.683901 2.12132 2.12132 
C 2.683901 1.55874 3 0.795609 3 0 
C 3 -0.795609 2.683901 -1.55874 2.12132 -2.12132 
C 1.55874 -2.683901 0.795609 -3 0 -3 
C -0.795609 -3 -1.55874 -2.683901 -2.12132 -2.12132 
C -2.683901 -1.55874 -3 -0.795609 -3 0 
C -3 0.795609 -2.683901 1.55874 -2.12132 2.12132 
C -1.55874 2.683901 -0.795609 3 0 3 
z
" style="stroke: #9467bd"/>
    </defs>
    <g clip-path="url(#p2e1d076b7b)">
     <use xlink:href="#mc2fb9b9004" x="471.790159" y="453.057476" style="fill: #9467bd; stroke: #9467bd"/>
    </g>
   </g>
   <g id="line2d_14">
    <defs>
     <path id="me1ea6d27e1" d="M 0 3 
C 0.795609 3 1.55874 2.683901 2.12132 2.12132 
C 2.683901 1.55874 3 0.795609 3 0 
C 3 -0.795609 2.683901 -1.55874 2.12132 -2.12132 
C 1.55874 -2.683901 0.795609 -3 0 -3 
C -0.795609 -3 -1.55874 -2.683901 -2.12132 -2.12132 
C -2.683901 -1.55874 -3 -0.795609 -3 0 
C -3 0.795609 -2.683901 1.55874 -2.12132 2.12132 
C -1.55874 2.683901 -0.795609 3 0 3 
z
" style="stroke: #8c564b"/>
    </defs>
    <g clip-path="url(#p2e1d076b7b)">
     <use xlink:href="#me1ea6d27e1" x="470.769618" y="484.764799" style="fill: #8c564b; stroke: #8c564b"/>
    </g>
   </g>
   <g id="line2d_15">
    <defs>
     <path id="m8a11d1c91e" d="M -0 3 
L 3 -3 
L -3 -3 
z
" style="stroke: #e377c2; stroke-linejoin: miter"/>
    </defs>
    <g clip-path="url(#p2e1d076b7b)">
     <use xlink:href="#m8a11d1c91e" x="537.151446" y="530.671446" style="fill: #e377c2; stroke: #e377c2; stroke-linejoin: miter"/>
    </g>
   </g>
   <g id="line2d_16">
    <defs>
     <path id="md536c67f62" d="M 0 -3 
L -3 3 
L 3 3 
z
" style="stroke: #7f7f7f; stroke-linejoin: miter"/>
    </defs>
    <g clip-path="url(#p2e1d076b7b)">
     <use xlink:href="#md536c67f62" x="642.741891" y="551.756504" style="fill: #7f7f7f; stroke: #7f7f7f; stroke-linejoin: miter"/>
    </g>
   </g>
   <g id="line2d_17">
    <defs>
     <path id="m7533ad3b12" d="M 0 3 
C 0.795609 3 1.55874 2.683901 2.12132 2.12132 
C 2.683901 1.55874 3 0.795609 3 0 
C 3 -0.795609 2.683901 -1.55874 2.12132 -2.12132 
C 1.55874 -2.683901 0.795609 -3 0 -3 
C -0.795609 -3 -1.55874 -2.683901 -2.12132 -2.12132 
C -2.683901 -1.55874 -3 -0.795609 -3 0 
C -3 0.795609 -2.683901 1.55874 -2.12132 2.12132 
C -1.55874 2.683901 -0.795609 3 0 3 
z
" style="stroke: #bcbd22"/>
    </defs>
    <g clip-path="url(#p2e1d076b7b)">
     <use xlink:href="#m7533ad3b12" x="541.882288" y="607.935556" style="fill: #bcbd22; stroke: #bcbd22"/>
    </g>
   </g>
   <g id="line2d_18">
    <defs>
     <path id="m809d5f0ddd" d="M 0 3 
C 0.795609 3 1.55874 2.683901 2.12132 2.12132 
C 2.683901 1.55874 3 0.795609 3 0 
C 3 -0.795609 2.683901 -1.55874 2.12132 -2.12132 
C 1.55874 -2.683901 0.795609 -3 0 -3 
C -0.795609 -3 -1.55874 -2.683901 -2.12132 -2.12132 
C -2.683901 -1.55874 -3 -0.795609 -3 0 
C -3 0.795609 -2.683901 1.55874 -2.12132 2.12132 
C -1.55874 2.683901 -0.795609 3 0 3 
z
" style="stroke: #17becf"/>
    </defs>
    <g clip-path="url(#p2e1d076b7b)">
     <use xlink:href="#m809d5f0ddd" x="685.373635" y="576.369953" style="fill: #17becf; stroke: #17becf"/>
    </g>
   </g>
   <g id="line2d_19">
    <g clip-path="url(#p2e1d076b7b)">
     <use xlink:href="#mdf256c66c1" x="593.224179" y="696.86232" style="fill: #1f77b4; stroke: #1f77b4"/>
    </g>
   </g>
   <g id="line2d_20">
    <g clip-path="url(#p2e1d076b7b)">
     <use xlink:href="#me2e1839840" x="417.400557" y="461.719443" style="fill: #ff7f0e; stroke: #ff7f0e"/>
    </g>
   </g>
   <g id="line2d_21">
    <g clip-path="url(#p2e1d076b7b)">
     <use xlink:href="#m6b4b8d76c6" x="384.428732" y="537.422002" style="fill: #2ca02c; stroke: #2ca02c"/>
    </g>
   </g>
   <g id="line2d_22">
    <g clip-path="url(#p2e1d076b7b)">
     <use xlink:href="#m6e3c219987" x="342.799695" y="494.055203" style="fill: #d62728; stroke: #d62728"/>
    </g>
   </g>
   <g id="line2d_23">
    <g clip-path="url(#p2e1d076b7b)">
     <use xlink:href="#mc2fb9b9004" x="331.72021" y="628.71584" style="fill: #9467bd; stroke: #9467bd"/>
    </g>
   </g>
   <g id="line2d_24">
    <g clip-path="url(#p2e1d076b7b)">
     <use xlink:href="#me1ea6d27e1" x="253.516053" y="545.603138" style="fill: #8c564b; stroke: #8c564b"/>
    </g>
   </g>
   <g id="line2d_25">
    <defs>
     <path id="mc9bb305809" d="M 0 3 
C 0.795609 3 1.55874 2.683901 2.12132 2.12132 
C 2.683901 1.55874 3 0.795609 3 0 
C 3 -0.795609 2.683901 -1.55874 2.12132 -2.12132 
C 1.55874 -2.683901 0.795609 -3 0 -3 
C -0.795609 -3 -1.55874 -2.683901 -2.12132 -2.12132 
C -2.683901 -1.55874 -3 -0.795609 -3 0 
C -3 0.795609 -2.683901 1.55874 -2.12132 2.12132 
C -1.55874 2.683901 -0.795609 3 0 3 
z
" style="stroke: #e377c2"/>
    </defs>
    <g clip-path="url(#p2e1d076b7b)">
     <use xlink:href="#mc9bb305809" x="241.971318" y="637.148682" style="fill: #e377c2; stroke: #e377c2"/>
    </g>
   </g>
   <g id="line2d_26">
    <defs>
     <path id="m6f36713842" d="M 0 3 
C 0.795609 3 1.55874 2.683901 2.12132 2.12132 
C 2.683901 1.55874 3 0.795609 3 0 
C 3 -0.795609 2.683901 -1.55874 2.12132 -2.12132 
C 1.55874 -2.683901 0.795609 -3 0 -3 
C -0.795609 -3 -1.55874 -2.683901 -2.12132 -2.12132 
C -2.683901 -1.55874 -3 -0.795609 -3 0 
C -3 0.795609 -2.683901 1.55874 -2.12132 2.12132 
C -1.55874 2.683901 -0.795609 3 0 3 
z
" style="stroke: #7f7f7f"/>
    </defs>
    <g clip-path="url(#p2e1d076b7b)">
     <use xlink:href="#m6f36713842" x="412.477083" y="418.813056" style="fill: #7f7f7f; stroke: #7f7f7f"/>
    </g>
   </g>
   <g id="line2d_27">
    <g clip-path="url(#p2e1d076b7b)">
     <use xlink:href="#m7533ad3b12" x="433.69138" y="420.543407" style="fill: #bcbd22; stroke: #bcbd22"/>
    </g>
   </g>
   <g id="line2d_28">
    <g clip-path="url(#p2e1d076b7b)">
     <use xlink:href="#m809d5f0ddd" x="347.584654" y="381.347394" style="fill: #17becf; stroke: #17becf"/>
    </g>
   </g>
   <g id="line2d_29">
    <g clip-path="url(#p2e1d076b7b)">
     <use xlink:href="#mdf256c66c1" x="372.4478" y="314.466415" style="fill: #1f77b4; stroke: #1f77b4"/>
    </g>
   </g>
   <g id="line2d_30">
    <g clip-path="url(#p2e1d076b7b)">
     <use xlink:href="#me2e1839840" x="301.743842" y="295.263842" style="fill: #ff7f0e; stroke: #ff7f0e"/>
    </g>
   </g>
   <g id="patch_3">
    <path d="M 442.8 103.68 
C 399.118115 103.68 355.860982 112.284379 315.504183 129.000712 
C 275.147384 145.717046 238.475757 170.220244 207.588 201.108 
C 176.700244 231.995757 152.197046 268.667384 135.480712 309.024183 
C 118.764379 349.380982 110.16 392.638115 110.16 436.32 
C 110.16 480.001885 118.764379 523.259018 135.480712 563.615817 
C 152.197046 603.972616 176.700244 640.644243 207.588 671.532 
C 238.475757 702.419756 275.147384 726.922954 315.504183 743.639288 
C 355.860982 760.355621 399.118115 768.96 442.8 768.96 
C 486.481885 768.96 529.739018 760.355621 570.095817 743.639288 
C 610.452616 726.922954 647.124243 702.419756 678.012 671.532 
C 708.899756 640.644243 733.402954 603.972616 750.119288 563.615817 
C 766.835621 523.259018 775.44 480.001885 775.44 436.32 
C 775.44 392.638115 766.835621 349.380982 750.119288 309.024183 
C 733.402954 268.667384 708.899756 231.995757 678.012 201.108 
C 647.124243 170.220244 610.452616 145.717046 570.095817 129.000712 
C 529.739018 112.284379 486.481885 103.68 442.8 103.68 
" style="fill: none; stroke: #000000; stroke-width: 0.8; stroke-linejoin: miter; stroke-linecap: square"/>
   </g>
   <g id="text_1">
    <!-- Adopt -->
    <g transform="translate(425.947656 394.74) scale(0.1 -0.1)">
     <defs>
      <path id="DejaVuSans-Bold-41" d="M 3419 850 
L 1538 850 
L 1241 0 
L 31 0 
L 1759 4666 
L 3194 4666 
L 4922 0 
L 3713 0 
L 3419 850 
z
M 1838 1716 
L 3116 1716 
L 2478 3572 
L 1838 1716 
z
" transform="scale(0.015625)"/>
      <path id="DejaVuSans-Bold-64" d="M 2919 2988 
L 2919 4863 
L 4044 4863 
L 4044 0 
L 2919 0 
L 2919 506 
Q 2688 197 2409 53 
Q 2131 -91 1766 -91 
Q 1119 -91 703 423 
Q 288 938 288 1747 
Q 288 2556 703 3070 
Q 1119 3584 1766 3584 
Q 2128 3584 2408 3439 
Q 2688 3294 2919 2988 
z
M 2181 722 
Q 2541 722 2730 984 
Q 2919 1247 2919 1747 
Q 2919 2247 2730 2509 
Q 2541 2772 2181 2772 
Q 1825 2772 1636 2509 
Q 1447 2247 1447 1747 
Q 1447 1247 1636 984 
Q 1825 722 2181 722 
z
" transform="scale(0.015625)"/>
      <path id="DejaVuSans-Bold-6f" d="M 2203 2784 
Q 1831 2784 1636 2517 
Q 1441 2250 1441 1747 
Q 1441 1244 1636 976 
Q 1831 709 2203 709 
Q 2569 709 2762 976 
Q 2956 1244 2956 1747 
Q 2956 2250 2762 2517 
Q 2569 2784 2203 2784 
z
M 2203 3584 
Q 3106 3584 3614 3096 
Q 4122 2609 4122 1747 
Q 4122 884 3614 396 
Q 3106 -91 2203 -91 
Q 1297 -91 786 396 
Q 275 884 275 1747 
Q 275 2609 786 3096 
Q 1297 3584 2203 3584 
z
" transform="scale(0.015625)"/>
      <path id="DejaVuSans-Bold-70" d="M 1656 506 
L 1656 -1331 
L 538 -1331 
L 538 3500 
L 1656 3500 
L 1656 2988 
Q 1888 3294 2169 3439 
Q 2450 3584 2816 3584 
Q 3463 3584 3878 3070 
Q 4294 2556 4294 1747 
Q 4294 938 3878 423 
Q 3463 -91 2816 -91 
Q 2450 -91 2169 54 
Q 1888 200 1656 506 
z
M 2400 2772 
Q 2041 2772 1848 2508 
Q 1656 2244 1656 1747 
Q 1656 1250 1848 986 
Q 2041 722 2400 722 
Q 2759 722 2948 984 
Q 3138 1247 3138 1747 
Q 3138 2247 2948 2509 
Q 2759 2772 2400 2772 
z
" transform="scale(0.015625)"/>
      <path id="DejaVuSans-Bold-74" d="M 1759 4494 
L 1759 3500 
L 2913 3500 
L 2913 2700 
L 1759 2700 
L 1759 1216 
Q 1759 972 1856 886 
Q 1953 800 2241 800 
L 2816 800 
L 2816 0 
L 1856 0 
Q 1194 0 917 276 
Q 641 553 641 1216 
L 641 2700 
L 84 2700 
L 84 3500 
L 641 3500 
L 641 4494 
L 1759 4494 
z
" transform="scale(0.015625)"/>
     </defs>
     <use xlink:href="#DejaVuSans-Bold-41"/>
     <use xlink:href="#DejaVuSans-Bold-64" x="77.392578"/>
     <use xlink:href="#DejaVuSans-Bold-6f" x="148.974609"/>
     <use xlink:href="#DejaVuSans-Bold-70" x="217.675781"/>
     <use xlink:href="#DejaVuSans-Bold-74" x="289.257812"/>
    </g>
   </g>
   <g id="text_2">
    <!-- Adopt -->
    <g transform="translate(467.527656 436.32) scale(0.1 -0.1)">
     <use xlink:href="#DejaVuSans-Bold-41"/>
     <use xlink:href="#DejaVuSans-Bold-64" x="77.392578"/>
     <use xlink:href="#DejaVuSans-Bold-6f" x="148.974609"/>
     <use xlink:href="#DejaVuSans-Bold-70" x="217.675781"/>
     <use xlink:href="#DejaVuSans-Bold-74" x="289.257812"/>
    </g>
   </g>
   <g id="text_3">
    <!-- Trial -->
    <g transform="translate(430.671094 311.58) scale(0.1 -0.1)">
     <defs>
      <path id="DejaVuSans-Bold-54" d="M 31 4666 
L 4331 4666 
L 4331 3756 
L 2784 3756 
L 2784 0 
L 1581 0 
L 1581 3756 
L 31 3756 
L 31 4666 
z
" transform="scale(0.015625)"/>
      <path id="DejaVuSans-Bold-72" d="M 3138 2547 
Q 2991 2616 2845 2648 
Q 2700 2681 2553 2681 
Q 2122 2681 1889 2404 
Q 1656 2128 1656 1613 
L 1656 0 
L 538 0 
L 538 3500 
L 1656 3500 
L 1656 2925 
Q 1872 3269 2151 3426 
Q 2431 3584 2822 3584 
Q 2878 3584 2943 3579 
Q 3009 3575 3134 3559 
L 3138 2547 
z
" transform="scale(0.015625)"/>
      <path id="DejaVuSans-Bold-69" d="M 538 3500 
L 1656 3500 
L 1656 0 
L 538 0 
L 538 3500 
z
M 538 4863 
L 1656 4863 
L 1656 3950 
L 538 3950 
L 538 4863 
z
" transform="scale(0.015625)"/>
      <path id="DejaVuSans-Bold-61" d="M 2106 1575 
Q 1756 1575 1579 1456 
Q 1403 1338 1403 1106 
Q 1403 894 1545 773 
Q 1688 653 1941 653 
Q 2256 653 2472 879 
Q 2688 1106 2688 1447 
L 2688 1575 
L 2106 1575 
z
M 3816 1997 
L 3816 0 
L 2688 0 
L 2688 519 
Q 2463 200 2181 54 
Q 1900 -91 1497 -91 
Q 953 -91 614 226 
Q 275 544 275 1050 
Q 275 1666 698 1953 
Q 1122 2241 2028 2241 
L 2688 2241 
L 2688 2328 
Q 2688 2594 2478 2717 
Q 2269 2841 1825 2841 
Q 1466 2841 1156 2769 
Q 847 2697 581 2553 
L 581 3406 
Q 941 3494 1303 3539 
Q 1666 3584 2028 3584 
Q 2975 3584 3395 3211 
Q 3816 2838 3816 1997 
z
" transform="scale(0.015625)"/>
      <path id="DejaVuSans-Bold-6c" d="M 538 4863 
L 1656 4863 
L 1656 0 
L 538 0 
L 538 4863 
z
" transform="scale(0.015625)"/>
     </defs>
     <use xlink:href="#DejaVuSans-Bold-54"/>
     <use xlink:href="#DejaVuSans-Bold-72" x="57.212891"/>
     <use xlink:href="#DejaVuSans-Bold-69" x="106.529297"/>
     <use xlink:href="#DejaVuSans-Bold-61" x="140.806641"/>
     <use xlink:href="#DejaVuSans-Bold-6c" x="208.287109"/>
    </g>
   </g>
   <g id="text_4">
    <!-- Trial -->
    <g transform="translate(555.411094 436.32) scale(0.1 -0.1)">
     <use xlink:href="#DejaVuSans-Bold-54"/>
     <use xlink:href="#DejaVuSans-Bold-72" x="57.212891"/>
     <use xlink:href="#DejaVuSans-Bold-69" x="106.529297"/>
     <use xlink:href="#DejaVuSans-Bold-61" x="140.806641"/>
     <use xlink:href="#DejaVuSans-Bold-6c" x="208.287109"/>
    </g>
   </g>
   <g id="text_5">
    <!-- Assess -->
    <g transform="translate(423.635937 228.42) scale(0.1 -0.1)">
     <defs>
      <path id="DejaVuSans-Bold-73" d="M 3272 3391 
L 3272 2541 
Q 2913 2691 2578 2766 
Q 2244 2841 1947 2841 
Q 1628 2841 1473 2761 
Q 1319 2681 1319 2516 
Q 1319 2381 1436 2309 
Q 1553 2238 1856 2203 
L 2053 2175 
Q 2913 2066 3209 1816 
Q 3506 1566 3506 1031 
Q 3506 472 3093 190 
Q 2681 -91 1863 -91 
Q 1516 -91 1145 -36 
Q 775 19 384 128 
L 384 978 
Q 719 816 1070 734 
Q 1422 653 1784 653 
Q 2113 653 2278 743 
Q 2444 834 2444 1013 
Q 2444 1163 2330 1236 
Q 2216 1309 1875 1350 
L 1678 1375 
Q 931 1469 631 1722 
Q 331 1975 331 2491 
Q 331 3047 712 3315 
Q 1094 3584 1881 3584 
Q 2191 3584 2531 3537 
Q 2872 3491 3272 3391 
z
" transform="scale(0.015625)"/>
      <path id="DejaVuSans-Bold-65" d="M 4031 1759 
L 4031 1441 
L 1416 1441 
Q 1456 1047 1700 850 
Q 1944 653 2381 653 
Q 2734 653 3104 758 
Q 3475 863 3866 1075 
L 3866 213 
Q 3469 63 3072 -14 
Q 2675 -91 2278 -91 
Q 1328 -91 801 392 
Q 275 875 275 1747 
Q 275 2603 792 3093 
Q 1309 3584 2216 3584 
Q 3041 3584 3536 3087 
Q 4031 2591 4031 1759 
z
M 2881 2131 
Q 2881 2450 2695 2645 
Q 2509 2841 2209 2841 
Q 1884 2841 1681 2658 
Q 1478 2475 1428 2131 
L 2881 2131 
z
" transform="scale(0.015625)"/>
     </defs>
     <use xlink:href="#DejaVuSans-Bold-41"/>
     <use xlink:href="#DejaVuSans-Bold-73" x="77.392578"/>
     <use xlink:href="#DejaVuSans-Bold-73" x="136.914062"/>
     <use xlink:href="#DejaVuSans-Bold-65" x="196.435547"/>
     <use xlink:href="#DejaVuSans-Bold-73" x="264.257812"/>
     <use xlink:href="#DejaVuSans-Bold-73" x="323.779297"/>
    </g>
   </g>
   <g id="text_6">
    <!-- Assess -->
    <g transform="translate(631.535937 436.32) scale(0.1 -0.1)">
     <use xlink:href="#DejaVuSans-Bold-41"/>
     <use xlink:href="#DejaVuSans-Bold-73" x="77.392578"/>
     <use xlink:href="#DejaVuSans-Bold-73" x="136.914062"/>
     <use xlink:href="#DejaVuSans-Bold-65" x="196.435547"/>
     <use xlink:href="#DejaVuSans-Bold-73" x="264.257812"/>
     <use xlink:href="#DejaVuSans-Bold-73" x="323.779297"/>
    </g>
   </g>
   <g id="text_7">
    <!-- Hold -->
    <g transform="translate(429.8875 145.26) scale(0.1 -0.1)">
     <defs>
      <path id="DejaVuSans-Bold-48" d="M 588 4666 
L 1791 4666 
L 1791 2888 
L 3566 2888 
L 3566 4666 
L 4769 4666 
L 4769 0 
L 3566 0 
L 3566 1978 
L 1791 1978 
L 1791 0 
L 588 0 
L 588 4666 
z
" transform="scale(0.015625)"/>
     </defs>
     <use xlink:href="#DejaVuSans-Bold-48"/>
     <use xlink:href="#DejaVuSans-Bold-6f" x="83.691406"/>
     <use xlink:href="#DejaVuSans-Bold-6c" x="152.392578"/>
     <use xlink:href="#DejaVuSans-Bold-64" x="186.669922"/>
    </g>
   </g>
   <g id="text_8">
    <!-- Hold -->
    <g transform="translate(720.9475 436.32) scale(0.1 -0.1)">
     <use xlink:href="#DejaVuSans-Bold-48"/>
     <use xlink:href="#DejaVuSans-Bold-6f" x="83.691406"/>
     <use xlink:href="#DejaVuSans-Bold-6c" x="152.392578"/>
     <use xlink:href="#DejaVuSans-Bold-64" x="186.669922"/>
    </g>
   </g>
   <g id="text_9">
    <!-- LLM / GenAI -->
    <g transform="translate(726.088687 116.21475) scale(0.12 -0.12)">
     <defs>
      <path id="DejaVuSans-Bold-4c" d="M 588 4666 
L 1791 4666 
L 1791 909 
L 3903 909 
L 3903 0 
L 588 0 
L 588 4666 
z
" transform="scale(0.015625)"/>
      <path id="DejaVuSans-Bold-4d" d="M 588 4666 
L 2119 4666 
L 3181 2169 
L 4250 4666 
L 5778 4666 
L 5778 0 
L 4641 0 
L 4641 3413 
L 3566 897 
L 2803 897 
L 1728 3413 
L 1728 0 
L 588 0 
L 588 4666 
z
" transform="scale(0.015625)"/>
      <path id="DejaVuSans-Bold-20" transform="scale(0.015625)"/>
      <path id="DejaVuSans-Bold-2f" d="M 1644 4666 
L 2338 4666 
L 691 -594 
L 0 -594 
L 1644 4666 
z
" transform="scale(0.015625)"/>
      <path id="DejaVuSans-Bold-47" d="M 4781 347 
Q 4331 128 3847 18 
Q 3363 -91 2847 -91 
Q 1681 -91 1000 561 
Q 319 1213 319 2328 
Q 319 3456 1012 4103 
Q 1706 4750 2913 4750 
Q 3378 4750 3804 4662 
Q 4231 4575 4609 4403 
L 4609 3438 
Q 4219 3659 3833 3768 
Q 3447 3878 3059 3878 
Q 2341 3878 1952 3476 
Q 1563 3075 1563 2328 
Q 1563 1588 1938 1184 
Q 2313 781 3003 781 
Q 3191 781 3352 804 
Q 3513 828 3641 878 
L 3641 1784 
L 2906 1784 
L 2906 2591 
L 4781 2591 
L 4781 347 
z
" transform="scale(0.015625)"/>
      <path id="DejaVuSans-Bold-6e" d="M 4056 2131 
L 4056 0 
L 2931 0 
L 2931 347 
L 2931 1631 
Q 2931 2084 2911 2256 
Q 2891 2428 2841 2509 
Q 2775 2619 2662 2680 
Q 2550 2741 2406 2741 
Q 2056 2741 1856 2470 
Q 1656 2200 1656 1722 
L 1656 0 
L 538 0 
L 538 3500 
L 1656 3500 
L 1656 2988 
Q 1909 3294 2193 3439 
Q 2478 3584 2822 3584 
Q 3428 3584 3742 3212 
Q 4056 2841 4056 2131 
z
" transform="scale(0.015625)"/>
      <path id="DejaVuSans-Bold-49" d="M 588 4666 
L 1791 4666 
L 1791 0 
L 588 0 
L 588 4666 
z
" transform="scale(0.015625)"/>
     </defs>
     <use xlink:href="#DejaVuSans-Bold-4c"/>
     <use xlink:href="#DejaVuSans-Bold-4c" x="63.720703"/>
     <use xlink:href="#DejaVuSans-Bold-4d" x="127.441406"/>
     <use xlink:href="#DejaVuSans-Bold-20" x="226.953125"/>
     <use xlink:href="#DejaVuSans-Bold-2f" x="261.767578"/>
     <use xlink:href="#DejaVuSans-Bold-20" x="298.291016"/>
     <use xlink:href="#DejaVuSans-Bold-47" x="333.105469"/>
     <use xlink:href="#DejaVuSans-Bold-65" x="415.185547"/>
     <use xlink:href="#DejaVuSans-Bold-6e" x="483.007812"/>
     <use xlink:href="#DejaVuSans-Bold-41" x="554.199219"/>
     <use xlink:href="#DejaVuSans-Bold-49" x="631.591797"/>
    </g>
   </g>
   <g id="text_10">
    <!-- Analysis Tools -->
    <g transform="translate(718.826812 763.000875) scale(0.12 -0.12)">
     <defs>
      <path id="DejaVuSans-Bold-79" d="M 78 3500 
L 1197 3500 
L 2138 1125 
L 2938 3500 
L 4056 3500 
L 2584 -331 
Q 2363 -916 2067 -1148 
Q 1772 -1381 1288 -1381 
L 641 -1381 
L 641 -647 
L 991 -647 
Q 1275 -647 1404 -556 
Q 1534 -466 1606 -231 
L 1638 -134 
L 78 3500 
z
" transform="scale(0.015625)"/>
     </defs>
     <use xlink:href="#DejaVuSans-Bold-41"/>
     <use xlink:href="#DejaVuSans-Bold-6e" x="77.392578"/>
     <use xlink:href="#DejaVuSans-Bold-61" x="148.583984"/>
     <use xlink:href="#DejaVuSans-Bold-6c" x="216.064453"/>
     <use xlink:href="#DejaVuSans-Bold-79" x="250.341797"/>
     <use xlink:href="#DejaVuSans-Bold-73" x="315.527344"/>
     <use xlink:href="#DejaVuSans-Bold-69" x="375.048828"/>
     <use xlink:href="#DejaVuSans-Bold-73" x="409.326172"/>
     <use xlink:href="#DejaVuSans-Bold-20" x="468.847656"/>
     <use xlink:href="#DejaVuSans-Bold-54" x="503.662109"/>
     <use xlink:href="#DejaVuSans-Bold-6f" x="558.625"/>
     <use xlink:href="#DejaVuSans-Bold-6f" x="627.326172"/>
     <use xlink:href="#DejaVuSans-Bold-6c" x="696.027344"/>
     <use xlink:href="#DejaVuSans-Bold-73" x="730.304688"/>
    </g>
   </g>
   <g id="text_11">
    <!-- Programming Languages -->
    <g transform="translate(34.692563 763.000875) scale(0.12 -0.12)">
     <defs>
      <path id="DejaVuSans-Bold-50" d="M 588 4666 
L 2584 4666 
Q 3475 4666 3951 4270 
Q 4428 3875 4428 3144 
Q 4428 2409 3951 2014 
Q 3475 1619 2584 1619 
L 1791 1619 
L 1791 0 
L 588 0 
L 588 4666 
z
M 1791 3794 
L 1791 2491 
L 2456 2491 
Q 2806 2491 2997 2661 
Q 3188 2831 3188 3144 
Q 3188 3456 2997 3625 
Q 2806 3794 2456 3794 
L 1791 3794 
z
" transform="scale(0.015625)"/>
      <path id="DejaVuSans-Bold-67" d="M 2919 594 
Q 2688 288 2409 144 
Q 2131 0 1766 0 
Q 1125 0 706 504 
Q 288 1009 288 1791 
Q 288 2575 706 3076 
Q 1125 3578 1766 3578 
Q 2131 3578 2409 3434 
Q 2688 3291 2919 2981 
L 2919 3500 
L 4044 3500 
L 4044 353 
Q 4044 -491 3511 -936 
Q 2978 -1381 1966 -1381 
Q 1638 -1381 1331 -1331 
Q 1025 -1281 716 -1178 
L 716 -306 
Q 1009 -475 1290 -558 
Q 1572 -641 1856 -641 
Q 2406 -641 2662 -400 
Q 2919 -159 2919 353 
L 2919 594 
z
M 2181 2772 
Q 1834 2772 1640 2515 
Q 1447 2259 1447 1791 
Q 1447 1309 1634 1061 
Q 1822 813 2181 813 
Q 2531 813 2725 1069 
Q 2919 1325 2919 1791 
Q 2919 2259 2725 2515 
Q 2531 2772 2181 2772 
z
" transform="scale(0.015625)"/>
      <path id="DejaVuSans-Bold-6d" d="M 3781 2919 
Q 3994 3244 4286 3414 
Q 4578 3584 4928 3584 
Q 5531 3584 5847 3212 
Q 6163 2841 6163 2131 
L 6163 0 
L 5038 0 
L 5038 1825 
Q 5041 1866 5042 1909 
Q 5044 1953 5044 2034 
Q 5044 2406 4934 2573 
Q 4825 2741 4581 2741 
Q 4263 2741 4089 2478 
Q 3916 2216 3909 1719 
L 3909 0 
L 2784 0 
L 2784 1825 
Q 2784 2406 2684 2573 
Q 2584 2741 2328 2741 
Q 2006 2741 1831 2477 
Q 1656 2213 1656 1722 
L 1656 0 
L 531 0 
L 531 3500 
L 1656 3500 
L 1656 2988 
Q 1863 3284 2130 3434 
Q 2397 3584 2719 3584 
Q 3081 3584 3359 3409 
Q 3638 3234 3781 2919 
z
" transform="scale(0.015625)"/>
      <path id="DejaVuSans-Bold-75" d="M 500 1363 
L 500 3500 
L 1625 3500 
L 1625 3150 
Q 1625 2866 1622 2436 
Q 1619 2006 1619 1863 
Q 1619 1441 1641 1255 
Q 1663 1069 1716 984 
Q 1784 875 1895 815 
Q 2006 756 2150 756 
Q 2500 756 2700 1025 
Q 2900 1294 2900 1772 
L 2900 3500 
L 4019 3500 
L 4019 0 
L 2900 0 
L 2900 506 
Q 2647 200 2364 54 
Q 2081 -91 1741 -91 
Q 1134 -91 817 281 
Q 500 653 500 1363 
z
" transform="scale(0.015625)"/>
     </defs>
     <use xlink:href="#DejaVuSans-Bold-50"/>
     <use xlink:href="#DejaVuSans-Bold-72" x="73.291016"/>
     <use xlink:href="#DejaVuSans-Bold-6f" x="122.607422"/>
     <use xlink:href="#DejaVuSans-Bold-67" x="191.308594"/>
     <use xlink:href="#DejaVuSans-Bold-72" x="262.890625"/>
     <use xlink:href="#DejaVuSans-Bold-61" x="312.207031"/>
     <use xlink:href="#DejaVuSans-Bold-6d" x="379.6875"/>
     <use xlink:href="#DejaVuSans-Bold-6d" x="483.886719"/>
     <use xlink:href="#DejaVuSans-Bold-69" x="588.085938"/>
     <use xlink:href="#DejaVuSans-Bold-6e" x="622.363281"/>
     <use xlink:href="#DejaVuSans-Bold-67" x="693.554688"/>
     <use xlink:href="#DejaVuSans-Bold-20" x="765.136719"/>
     <use xlink:href="#DejaVuSans-Bold-4c" x="799.951172"/>
     <use xlink:href="#DejaVuSans-Bold-61" x="863.671875"/>
     <use xlink:href="#DejaVuSans-Bold-6e" x="931.152344"/>
     <use xlink:href="#DejaVuSans-Bold-67" x="1002.34375"/>
     <use xlink:href="#DejaVuSans-Bold-75" x="1073.925781"/>
     <use xlink:href="#DejaVuSans-Bold-61" x="1145.117188"/>
     <use xlink:href="#DejaVuSans-Bold-67" x="1212.597656"/>
     <use xlink:href="#DejaVuSans-Bold-65" x="1284.179688"/>
     <use xlink:href="#DejaVuSans-Bold-73" x="1352.001953"/>
    </g>
   </g>
   <g id="text_12">
    <!-- IaC -->
    <g transform="translate(108.698813 116.21475) scale(0.12 -0.12)">
     <defs>
      <path id="DejaVuSans-Bold-43" d="M 4288 256 
Q 3956 84 3597 -3 
Q 3238 -91 2847 -91 
Q 1681 -91 1000 561 
Q 319 1213 319 2328 
Q 319 3447 1000 4098 
Q 1681 4750 2847 4750 
Q 3238 4750 3597 4662 
Q 3956 4575 4288 4403 
L 4288 3438 
Q 3953 3666 3628 3772 
Q 3303 3878 2944 3878 
Q 2300 3878 1931 3465 
Q 1563 3053 1563 2328 
Q 1563 1606 1931 1193 
Q 2300 781 2944 781 
Q 3303 781 3628 887 
Q 3953 994 4288 1222 
L 4288 256 
z
" transform="scale(0.015625)"/>
     </defs>
     <use xlink:href="#DejaVuSans-Bold-49"/>
     <use xlink:href="#DejaVuSans-Bold-61" x="37.207031"/>
     <use xlink:href="#DejaVuSans-Bold-43" x="104.6875"/>
    </g>
   </g>
   <g id="text_13">
    <!-- chag-gpt -->
    <g transform="translate(528.637417 256.673063) scale(0.1 -0.1)">
     <defs>
      <path id="DejaVuSans-63" d="M 3122 3366 
L 3122 2828 
Q 2878 2963 2633 3030 
Q 2388 3097 2138 3097 
Q 1578 3097 1268 2742 
Q 959 2388 959 1747 
Q 959 1106 1268 751 
Q 1578 397 2138 397 
Q 2388 397 2633 464 
Q 2878 531 3122 666 
L 3122 134 
Q 2881 22 2623 -34 
Q 2366 -91 2075 -91 
Q 1284 -91 818 406 
Q 353 903 353 1747 
Q 353 2603 823 3093 
Q 1294 3584 2113 3584 
Q 2378 3584 2631 3529 
Q 2884 3475 3122 3366 
z
" transform="scale(0.015625)"/>
      <path id="DejaVuSans-68" d="M 3513 2113 
L 3513 0 
L 2938 0 
L 2938 2094 
Q 2938 2591 2744 2837 
Q 2550 3084 2163 3084 
Q 1697 3084 1428 2787 
Q 1159 2491 1159 1978 
L 1159 0 
L 581 0 
L 581 4863 
L 1159 4863 
L 1159 2956 
Q 1366 3272 1645 3428 
Q 1925 3584 2291 3584 
Q 2894 3584 3203 3211 
Q 3513 2838 3513 2113 
z
" transform="scale(0.015625)"/>
      <path id="DejaVuSans-61" d="M 2194 1759 
Q 1497 1759 1228 1600 
Q 959 1441 959 1056 
Q 959 750 1161 570 
Q 1363 391 1709 391 
Q 2188 391 2477 730 
Q 2766 1069 2766 1631 
L 2766 1759 
L 2194 1759 
z
M 3341 1997 
L 3341 0 
L 2766 0 
L 2766 531 
Q 2569 213 2275 61 
Q 1981 -91 1556 -91 
Q 1019 -91 701 211 
Q 384 513 384 1019 
Q 384 1609 779 1909 
Q 1175 2209 1959 2209 
L 2766 2209 
L 2766 2266 
Q 2766 2663 2505 2880 
Q 2244 3097 1772 3097 
Q 1472 3097 1187 3025 
Q 903 2953 641 2809 
L 641 3341 
Q 956 3463 1253 3523 
Q 1550 3584 1831 3584 
Q 2591 3584 2966 3190 
Q 3341 2797 3341 1997 
z
" transform="scale(0.015625)"/>
      <path id="DejaVuSans-67" d="M 2906 1791 
Q 2906 2416 2648 2759 
Q 2391 3103 1925 3103 
Q 1463 3103 1205 2759 
Q 947 2416 947 1791 
Q 947 1169 1205 825 
Q 1463 481 1925 481 
Q 2391 481 2648 825 
Q 2906 1169 2906 1791 
z
M 3481 434 
Q 3481 -459 3084 -895 
Q 2688 -1331 1869 -1331 
Q 1566 -1331 1297 -1286 
Q 1028 -1241 775 -1147 
L 775 -588 
Q 1028 -725 1275 -790 
Q 1522 -856 1778 -856 
Q 2344 -856 2625 -561 
Q 2906 -266 2906 331 
L 2906 616 
Q 2728 306 2450 153 
Q 2172 0 1784 0 
Q 1141 0 747 490 
Q 353 981 353 1791 
Q 353 2603 747 3093 
Q 1141 3584 1784 3584 
Q 2172 3584 2450 3431 
Q 2728 3278 2906 2969 
L 2906 3500 
L 3481 3500 
L 3481 434 
z
" transform="scale(0.015625)"/>
      <path id="DejaVuSans-2d" d="M 313 2009 
L 1997 2009 
L 1997 1497 
L 313 1497 
L 313 2009 
z
" transform="scale(0.015625)"/>
      <path id="DejaVuSans-70" d="M 1159 525 
L 1159 -1331 
L 581 -1331 
L 581 3500 
L 1159 3500 
L 1159 2969 
Q 1341 3281 1617 3432 
Q 1894 3584 2278 3584 
Q 2916 3584 3314 3078 
Q 3713 2572 3713 1747 
Q 3713 922 3314 415 
Q 2916 -91 2278 -91 
Q 1894 -91 1617 61 
Q 1341 213 1159 525 
z
M 3116 1747 
Q 3116 2381 2855 2742 
Q 2594 3103 2138 3103 
Q 1681 3103 1420 2742 
Q 1159 2381 1159 1747 
Q 1159 1113 1420 752 
Q 1681 391 2138 391 
Q 2594 391 2855 752 
Q 3116 1113 3116 1747 
z
" transform="scale(0.015625)"/>
      <path id="DejaVuSans-74" d="M 1172 4494 
L 1172 3500 
L 2356 3500 
L 2356 3053 
L 1172 3053 
L 1172 1153 
Q 1172 725 1289 603 
Q 1406 481 1766 481 
L 2356 481 
L 2356 0 
L 1766 0 
Q 1100 0 847 248 
Q 594 497 594 1153 
L 594 3053 
L 172 3053 
L 172 3500 
L 594 3500 
L 594 4494 
L 1172 4494 
z
" transform="scale(0.015625)"/>
     </defs>
     <use xlink:href="#DejaVuSans-63"/>
     <use xlink:href="#DejaVuSans-68" x="54.980469"/>
     <use xlink:href="#DejaVuSans-61" x="118.359375"/>
     <use xlink:href="#DejaVuSans-67" x="179.638672"/>
     <use xlink:href="#DejaVuSans-2d" x="243.115234"/>
     <use xlink:href="#DejaVuSans-67" x="279.199219"/>
     <use xlink:href="#DejaVuSans-70" x="342.675781"/>
     <use xlink:href="#DejaVuSans-74" x="406.152344"/>
    </g>
   </g>
   <g id="text_14">
    <!-- claude -->
    <g transform="translate(601.719234 342.569731) scale(0.1 -0.1)">
     <defs>
      <path id="DejaVuSans-6c" d="M 603 4863 
L 1178 4863 
L 1178 0 
L 603 0 
L 603 4863 
z
" transform="scale(0.015625)"/>
      <path id="DejaVuSans-75" d="M 544 1381 
L 544 3500 
L 1119 3500 
L 1119 1403 
Q 1119 906 1312 657 
Q 1506 409 1894 409 
Q 2359 409 2629 706 
Q 2900 1003 2900 1516 
L 2900 3500 
L 3475 3500 
L 3475 0 
L 2900 0 
L 2900 538 
Q 2691 219 2414 64 
Q 2138 -91 1772 -91 
Q 1169 -91 856 284 
Q 544 659 544 1381 
z
M 1991 3584 
L 1991 3584 
z
" transform="scale(0.015625)"/>
      <path id="DejaVuSans-64" d="M 2906 2969 
L 2906 4863 
L 3481 4863 
L 3481 0 
L 2906 0 
L 2906 525 
Q 2725 213 2448 61 
Q 2172 -91 1784 -91 
Q 1150 -91 751 415 
Q 353 922 353 1747 
Q 353 2572 751 3078 
Q 1150 3584 1784 3584 
Q 2172 3584 2448 3432 
Q 2725 3281 2906 2969 
z
M 947 1747 
Q 947 1113 1208 752 
Q 1469 391 1925 391 
Q 2381 391 2643 752 
Q 2906 1113 2906 1747 
Q 2906 2381 2643 2742 
Q 2381 3103 1925 3103 
Q 1469 3103 1208 2742 
Q 947 2381 947 1747 
z
" transform="scale(0.015625)"/>
      <path id="DejaVuSans-65" d="M 3597 1894 
L 3597 1613 
L 953 1613 
Q 991 1019 1311 708 
Q 1631 397 2203 397 
Q 2534 397 2845 478 
Q 3156 559 3463 722 
L 3463 178 
Q 3153 47 2828 -22 
Q 2503 -91 2169 -91 
Q 1331 -91 842 396 
Q 353 884 353 1716 
Q 353 2575 817 3079 
Q 1281 3584 2069 3584 
Q 2775 3584 3186 3129 
Q 3597 2675 3597 1894 
z
M 3022 2063 
Q 3016 2534 2758 2815 
Q 2500 3097 2075 3097 
Q 1594 3097 1305 2825 
Q 1016 2553 972 2059 
L 3022 2063 
z
" transform="scale(0.015625)"/>
     </defs>
     <use xlink:href="#DejaVuSans-63"/>
     <use xlink:href="#DejaVuSans-6c" x="54.980469"/>
     <use xlink:href="#DejaVuSans-61" x="82.763672"/>
     <use xlink:href="#DejaVuSans-75" x="144.042969"/>
     <use xlink:href="#DejaVuSans-64" x="207.421875"/>
     <use xlink:href="#DejaVuSans-65" x="270.898438"/>
    </g>
   </g>
   <g id="text_15">
    <!-- code-llama -->
    <g transform="translate(551.270796 208.167895) scale(0.1 -0.1)">
     <defs>
      <path id="DejaVuSans-6f" d="M 1959 3097 
Q 1497 3097 1228 2736 
Q 959 2375 959 1747 
Q 959 1119 1226 758 
Q 1494 397 1959 397 
Q 2419 397 2687 759 
Q 2956 1122 2956 1747 
Q 2956 2369 2687 2733 
Q 2419 3097 1959 3097 
z
M 1959 3584 
Q 2709 3584 3137 3096 
Q 3566 2609 3566 1747 
Q 3566 888 3137 398 
Q 2709 -91 1959 -91 
Q 1206 -91 779 398 
Q 353 888 353 1747 
Q 353 2609 779 3096 
Q 1206 3584 1959 3584 
z
" transform="scale(0.015625)"/>
      <path id="DejaVuSans-6d" d="M 3328 2828 
Q 3544 3216 3844 3400 
Q 4144 3584 4550 3584 
Q 5097 3584 5394 3201 
Q 5691 2819 5691 2113 
L 5691 0 
L 5113 0 
L 5113 2094 
Q 5113 2597 4934 2840 
Q 4756 3084 4391 3084 
Q 3944 3084 3684 2787 
Q 3425 2491 3425 1978 
L 3425 0 
L 2847 0 
L 2847 2094 
Q 2847 2600 2669 2842 
Q 2491 3084 2119 3084 
Q 1678 3084 1418 2786 
Q 1159 2488 1159 1978 
L 1159 0 
L 581 0 
L 581 3500 
L 1159 3500 
L 1159 2956 
Q 1356 3278 1631 3431 
Q 1906 3584 2284 3584 
Q 2666 3584 2933 3390 
Q 3200 3197 3328 2828 
z
" transform="scale(0.015625)"/>
     </defs>
     <use xlink:href="#DejaVuSans-63"/>
     <use xlink:href="#DejaVuSans-6f" x="54.980469"/>
     <use xlink:href="#DejaVuSans-64" x="116.162109"/>
     <use xlink:href="#DejaVuSans-65" x="179.638672"/>
     <use xlink:href="#DejaVuSans-2d" x="241.162109"/>
     <use xlink:href="#DejaVuSans-6c" x="277.246094"/>
     <use xlink:href="#DejaVuSans-6c" x="305.029297"/>
     <use xlink:href="#DejaVuSans-61" x="332.8125"/>
     <use xlink:href="#DejaVuSans-6d" x="394.091797"/>
     <use xlink:href="#DejaVuSans-61" x="491.503906"/>
    </g>
   </g>
   <g id="text_16">
    <!-- monocle -->
    <g transform="translate(678.420267 295.543504) scale(0.1 -0.1)">
     <defs>
      <path id="DejaVuSans-6e" d="M 3513 2113 
L 3513 0 
L 2938 0 
L 2938 2094 
Q 2938 2591 2744 2837 
Q 2550 3084 2163 3084 
Q 1697 3084 1428 2787 
Q 1159 2491 1159 1978 
L 1159 0 
L 581 0 
L 581 3500 
L 1159 3500 
L 1159 2956 
Q 1366 3272 1645 3428 
Q 1925 3584 2291 3584 
Q 2894 3584 3203 3211 
Q 3513 2838 3513 2113 
z
" transform="scale(0.015625)"/>
     </defs>
     <use xlink:href="#DejaVuSans-6d"/>
     <use xlink:href="#DejaVuSans-6f" x="97.412109"/>
     <use xlink:href="#DejaVuSans-6e" x="158.59375"/>
     <use xlink:href="#DejaVuSans-6f" x="221.972656"/>
     <use xlink:href="#DejaVuSans-63" x="283.154297"/>
     <use xlink:href="#DejaVuSans-6c" x="338.134766"/>
     <use xlink:href="#DejaVuSans-65" x="365.917969"/>
    </g>
   </g>
   <g id="text_17">
    <!-- tool1 -->
    <g transform="translate(459.14094 460.655914) scale(0.1 -0.1)">
     <defs>
      <path id="DejaVuSans-31" d="M 794 531 
L 1825 531 
L 1825 4091 
L 703 3866 
L 703 4441 
L 1819 4666 
L 2450 4666 
L 2450 531 
L 3481 531 
L 3481 0 
L 794 0 
L 794 531 
z
" transform="scale(0.015625)"/>
     </defs>
     <use xlink:href="#DejaVuSans-74"/>
     <use xlink:href="#DejaVuSans-6f" x="39.208984"/>
     <use xlink:href="#DejaVuSans-6f" x="100.390625"/>
     <use xlink:href="#DejaVuSans-6c" x="161.572266"/>
     <use xlink:href="#DejaVuSans-31" x="189.355469"/>
    </g>
   </g>
   <g id="text_18">
    <!-- tool2 -->
    <g transform="translate(458.120399 492.363236) scale(0.1 -0.1)">
     <defs>
      <path id="DejaVuSans-32" d="M 1228 531 
L 3431 531 
L 3431 0 
L 469 0 
L 469 531 
Q 828 903 1448 1529 
Q 2069 2156 2228 2338 
Q 2531 2678 2651 2914 
Q 2772 3150 2772 3378 
Q 2772 3750 2511 3984 
Q 2250 4219 1831 4219 
Q 1534 4219 1204 4116 
Q 875 4013 500 3803 
L 500 4441 
Q 881 4594 1212 4672 
Q 1544 4750 1819 4750 
Q 2544 4750 2975 4387 
Q 3406 4025 3406 3419 
Q 3406 3131 3298 2873 
Q 3191 2616 2906 2266 
Q 2828 2175 2409 1742 
Q 1991 1309 1228 531 
z
" transform="scale(0.015625)"/>
     </defs>
     <use xlink:href="#DejaVuSans-74"/>
     <use xlink:href="#DejaVuSans-6f" x="39.208984"/>
     <use xlink:href="#DejaVuSans-6f" x="100.390625"/>
     <use xlink:href="#DejaVuSans-6c" x="161.572266"/>
     <use xlink:href="#DejaVuSans-32" x="189.355469"/>
    </g>
   </g>
   <g id="text_19">
    <!-- tool3 -->
    <g transform="translate(524.502227 538.269883) scale(0.1 -0.1)">
     <defs>
      <path id="DejaVuSans-33" d="M 2597 2516 
Q 3050 2419 3304 2112 
Q 3559 1806 3559 1356 
Q 3559 666 3084 287 
Q 2609 -91 1734 -91 
Q 1441 -91 1130 -33 
Q 819 25 488 141 
L 488 750 
Q 750 597 1062 519 
Q 1375 441 1716 441 
Q 2309 441 2620 675 
Q 2931 909 2931 1356 
Q 2931 1769 2642 2001 
Q 2353 2234 1838 2234 
L 1294 2234 
L 1294 2753 
L 1863 2753 
Q 2328 2753 2575 2939 
Q 2822 3125 2822 3475 
Q 2822 3834 2567 4026 
Q 2313 4219 1838 4219 
Q 1578 4219 1281 4162 
Q 984 4106 628 3988 
L 628 4550 
Q 988 4650 1302 4700 
Q 1616 4750 1894 4750 
Q 2613 4750 3031 4423 
Q 3450 4097 3450 3541 
Q 3450 3153 3228 2886 
Q 3006 2619 2597 2516 
z
" transform="scale(0.015625)"/>
     </defs>
     <use xlink:href="#DejaVuSans-74"/>
     <use xlink:href="#DejaVuSans-6f" x="39.208984"/>
     <use xlink:href="#DejaVuSans-6f" x="100.390625"/>
     <use xlink:href="#DejaVuSans-6c" x="161.572266"/>
     <use xlink:href="#DejaVuSans-33" x="189.355469"/>
    </g>
   </g>
   <g id="text_20">
    <!-- tool4 -->
    <g transform="translate(630.092672 559.354942) scale(0.1 -0.1)">
     <defs>
      <path id="DejaVuSans-34" d="M 2419 4116 
L 825 1625 
L 2419 1625 
L 2419 4116 
z
M 2253 4666 
L 3047 4666 
L 3047 1625 
L 3713 1625 
L 3713 1100 
L 3047 1100 
L 3047 0 
L 2419 0 
L 2419 1100 
L 313 1100 
L 313 1709 
L 2253 4666 
z
" transform="scale(0.015625)"/>
     </defs>
     <use xlink:href="#DejaVuSans-74"/>
     <use xlink:href="#DejaVuSans-6f" x="39.208984"/>
     <use xlink:href="#DejaVuSans-6f" x="100.390625"/>
     <use xlink:href="#DejaVuSans-6c" x="161.572266"/>
     <use xlink:href="#DejaVuSans-34" x="189.355469"/>
    </g>
   </g>
   <g id="text_21">
    <!-- tool5 -->
    <g transform="translate(529.233069 615.533994) scale(0.1 -0.1)">
     <defs>
      <path id="DejaVuSans-35" d="M 691 4666 
L 3169 4666 
L 3169 4134 
L 1269 4134 
L 1269 2991 
Q 1406 3038 1543 3061 
Q 1681 3084 1819 3084 
Q 2600 3084 3056 2656 
Q 3513 2228 3513 1497 
Q 3513 744 3044 326 
Q 2575 -91 1722 -91 
Q 1428 -91 1123 -41 
Q 819 9 494 109 
L 494 744 
Q 775 591 1075 516 
Q 1375 441 1709 441 
Q 2250 441 2565 725 
Q 2881 1009 2881 1497 
Q 2881 1984 2565 2268 
Q 2250 2553 1709 2553 
Q 1456 2553 1204 2497 
Q 953 2441 691 2322 
L 691 4666 
z
" transform="scale(0.015625)"/>
     </defs>
     <use xlink:href="#DejaVuSans-74"/>
     <use xlink:href="#DejaVuSans-6f" x="39.208984"/>
     <use xlink:href="#DejaVuSans-6f" x="100.390625"/>
     <use xlink:href="#DejaVuSans-6c" x="161.572266"/>
     <use xlink:href="#DejaVuSans-35" x="189.355469"/>
    </g>
   </g>
   <g id="text_22">
    <!-- tool6 -->
    <g transform="translate(672.724416 583.968391) scale(0.1 -0.1)">
     <defs>
      <path id="DejaVuSans-36" d="M 2113 2584 
Q 1688 2584 1439 2293 
Q 1191 2003 1191 1497 
Q 1191 994 1439 701 
Q 1688 409 2113 409 
Q 2538 409 2786 701 
Q 3034 994 3034 1497 
Q 3034 2003 2786 2293 
Q 2538 2584 2113 2584 
z
M 3366 4563 
L 3366 3988 
Q 3128 4100 2886 4159 
Q 2644 4219 2406 4219 
Q 1781 4219 1451 3797 
Q 1122 3375 1075 2522 
Q 1259 2794 1537 2939 
Q 1816 3084 2150 3084 
Q 2853 3084 3261 2657 
Q 3669 2231 3669 1497 
Q 3669 778 3244 343 
Q 2819 -91 2113 -91 
Q 1303 -91 875 529 
Q 447 1150 447 2328 
Q 447 3434 972 4092 
Q 1497 4750 2381 4750 
Q 2619 4750 2861 4703 
Q 3103 4656 3366 4563 
z
" transform="scale(0.015625)"/>
     </defs>
     <use xlink:href="#DejaVuSans-74"/>
     <use xlink:href="#DejaVuSans-6f" x="39.208984"/>
     <use xlink:href="#DejaVuSans-6f" x="100.390625"/>
     <use xlink:href="#DejaVuSans-6c" x="161.572266"/>
     <use xlink:href="#DejaVuSans-36" x="189.355469"/>
    </g>
   </g>
   <g id="text_23">
    <!-- tool7 -->
    <g transform="translate(580.57496 704.460758) scale(0.1 -0.1)">
     <defs>
      <path id="DejaVuSans-37" d="M 525 4666 
L 3525 4666 
L 3525 4397 
L 1831 0 
L 1172 0 
L 2766 4134 
L 525 4134 
L 525 4666 
z
" transform="scale(0.015625)"/>
     </defs>
     <use xlink:href="#DejaVuSans-74"/>
     <use xlink:href="#DejaVuSans-6f" x="39.208984"/>
     <use xlink:href="#DejaVuSans-6f" x="100.390625"/>
     <use xlink:href="#DejaVuSans-6c" x="161.572266"/>
     <use xlink:href="#DejaVuSans-37" x="189.355469"/>
    </g>
   </g>
   <g id="text_24">
    <!-- python -->
    <g transform="translate(399.909932 469.31788) scale(0.1 -0.1)">
     <defs>
      <path id="DejaVuSans-79" d="M 2059 -325 
Q 1816 -950 1584 -1140 
Q 1353 -1331 966 -1331 
L 506 -1331 
L 506 -850 
L 844 -850 
Q 1081 -850 1212 -737 
Q 1344 -625 1503 -206 
L 1606 56 
L 191 3500 
L 800 3500 
L 1894 763 
L 2988 3500 
L 3597 3500 
L 2059 -325 
z
" transform="scale(0.015625)"/>
     </defs>
     <use xlink:href="#DejaVuSans-70"/>
     <use xlink:href="#DejaVuSans-79" x="63.476562"/>
     <use xlink:href="#DejaVuSans-74" x="122.65625"/>
     <use xlink:href="#DejaVuSans-68" x="161.865234"/>
     <use xlink:href="#DejaVuSans-6f" x="225.244141"/>
     <use xlink:href="#DejaVuSans-6e" x="286.425781"/>
    </g>
   </g>
   <g id="text_25">
    <!-- codon -->
    <g transform="translate(369.217794 545.02044) scale(0.1 -0.1)">
     <use xlink:href="#DejaVuSans-63"/>
     <use xlink:href="#DejaVuSans-6f" x="54.980469"/>
     <use xlink:href="#DejaVuSans-64" x="116.162109"/>
     <use xlink:href="#DejaVuSans-6f" x="179.638672"/>
     <use xlink:href="#DejaVuSans-6e" x="240.820312"/>
    </g>
   </g>
   <g id="text_26">
    <!-- cython -->
    <g transform="translate(325.73407 501.653641) scale(0.1 -0.1)">
     <use xlink:href="#DejaVuSans-63"/>
     <use xlink:href="#DejaVuSans-79" x="54.980469"/>
     <use xlink:href="#DejaVuSans-74" x="114.160156"/>
     <use xlink:href="#DejaVuSans-68" x="153.369141"/>
     <use xlink:href="#DejaVuSans-6f" x="216.748047"/>
     <use xlink:href="#DejaVuSans-6e" x="277.929688"/>
    </g>
   </g>
   <g id="text_27">
    <!-- rust -->
    <g transform="translate(321.931148 636.314277) scale(0.1 -0.1)">
     <defs>
      <path id="DejaVuSans-72" d="M 2631 2963 
Q 2534 3019 2420 3045 
Q 2306 3072 2169 3072 
Q 1681 3072 1420 2755 
Q 1159 2438 1159 1844 
L 1159 0 
L 581 0 
L 581 3500 
L 1159 3500 
L 1159 2956 
Q 1341 3275 1631 3429 
Q 1922 3584 2338 3584 
Q 2397 3584 2469 3576 
Q 2541 3569 2628 3553 
L 2631 2963 
z
" transform="scale(0.015625)"/>
      <path id="DejaVuSans-73" d="M 2834 3397 
L 2834 2853 
Q 2591 2978 2328 3040 
Q 2066 3103 1784 3103 
Q 1356 3103 1142 2972 
Q 928 2841 928 2578 
Q 928 2378 1081 2264 
Q 1234 2150 1697 2047 
L 1894 2003 
Q 2506 1872 2764 1633 
Q 3022 1394 3022 966 
Q 3022 478 2636 193 
Q 2250 -91 1575 -91 
Q 1294 -91 989 -36 
Q 684 19 347 128 
L 347 722 
Q 666 556 975 473 
Q 1284 391 1588 391 
Q 1994 391 2212 530 
Q 2431 669 2431 922 
Q 2431 1156 2273 1281 
Q 2116 1406 1581 1522 
L 1381 1569 
Q 847 1681 609 1914 
Q 372 2147 372 2553 
Q 372 3047 722 3315 
Q 1072 3584 1716 3584 
Q 2034 3584 2315 3537 
Q 2597 3491 2834 3397 
z
" transform="scale(0.015625)"/>
     </defs>
     <use xlink:href="#DejaVuSans-72"/>
     <use xlink:href="#DejaVuSans-75" x="41.113281"/>
     <use xlink:href="#DejaVuSans-73" x="104.492188"/>
     <use xlink:href="#DejaVuSans-74" x="156.591797"/>
    </g>
   </g>
   <g id="text_28">
    <!-- mojo -->
    <g transform="translate(241.137928 553.201575) scale(0.1 -0.1)">
     <defs>
      <path id="DejaVuSans-6a" d="M 603 3500 
L 1178 3500 
L 1178 -63 
Q 1178 -731 923 -1031 
Q 669 -1331 103 -1331 
L -116 -1331 
L -116 -844 
L 38 -844 
Q 366 -844 484 -692 
Q 603 -541 603 -63 
L 603 3500 
z
M 603 4863 
L 1178 4863 
L 1178 4134 
L 603 4134 
L 603 4863 
z
" transform="scale(0.015625)"/>
     </defs>
     <use xlink:href="#DejaVuSans-6d"/>
     <use xlink:href="#DejaVuSans-6f" x="97.412109"/>
     <use xlink:href="#DejaVuSans-6a" x="158.59375"/>
     <use xlink:href="#DejaVuSans-6f" x="186.376953"/>
    </g>
   </g>
   <g id="text_29">
    <!-- otherlang -->
    <g transform="translate(217.854912 644.747119) scale(0.1 -0.1)">
     <use xlink:href="#DejaVuSans-6f"/>
     <use xlink:href="#DejaVuSans-74" x="61.181641"/>
     <use xlink:href="#DejaVuSans-68" x="100.390625"/>
     <use xlink:href="#DejaVuSans-65" x="163.769531"/>
     <use xlink:href="#DejaVuSans-72" x="225.292969"/>
     <use xlink:href="#DejaVuSans-6c" x="266.40625"/>
     <use xlink:href="#DejaVuSans-61" x="294.189453"/>
     <use xlink:href="#DejaVuSans-6e" x="355.46875"/>
     <use xlink:href="#DejaVuSans-67" x="418.847656"/>
    </g>
   </g>
   <g id="text_30">
    <!-- terraform -->
    <g transform="translate(388.695052 426.411493) scale(0.1 -0.1)">
     <defs>
      <path id="DejaVuSans-66" d="M 2375 4863 
L 2375 4384 
L 1825 4384 
Q 1516 4384 1395 4259 
Q 1275 4134 1275 3809 
L 1275 3500 
L 2222 3500 
L 2222 3053 
L 1275 3053 
L 1275 0 
L 697 0 
L 697 3053 
L 147 3053 
L 147 3500 
L 697 3500 
L 697 3744 
Q 697 4328 969 4595 
Q 1241 4863 1831 4863 
L 2375 4863 
z
" transform="scale(0.015625)"/>
     </defs>
     <use xlink:href="#DejaVuSans-74"/>
     <use xlink:href="#DejaVuSans-65" x="39.208984"/>
     <use xlink:href="#DejaVuSans-72" x="100.732422"/>
     <use xlink:href="#DejaVuSans-72" x="140.095703"/>
     <use xlink:href="#DejaVuSans-61" x="181.208984"/>
     <use xlink:href="#DejaVuSans-66" x="242.488281"/>
     <use xlink:href="#DejaVuSans-6f" x="277.693359"/>
     <use xlink:href="#DejaVuSans-72" x="338.875"/>
     <use xlink:href="#DejaVuSans-6d" x="378.238281"/>
    </g>
   </g>
   <g id="text_31">
    <!-- iac2 -->
    <g transform="translate(423.307786 428.141844) scale(0.1 -0.1)">
     <defs>
      <path id="DejaVuSans-69" d="M 603 3500 
L 1178 3500 
L 1178 0 
L 603 0 
L 603 3500 
z
M 603 4863 
L 1178 4863 
L 1178 4134 
L 603 4134 
L 603 4863 
z
" transform="scale(0.015625)"/>
     </defs>
     <use xlink:href="#DejaVuSans-69"/>
     <use xlink:href="#DejaVuSans-61" x="27.783203"/>
     <use xlink:href="#DejaVuSans-63" x="89.0625"/>
     <use xlink:href="#DejaVuSans-32" x="144.042969"/>
    </g>
   </g>
   <g id="text_32">
    <!-- iac3 -->
    <g transform="translate(337.20106 388.945832) scale(0.1 -0.1)">
     <use xlink:href="#DejaVuSans-69"/>
     <use xlink:href="#DejaVuSans-61" x="27.783203"/>
     <use xlink:href="#DejaVuSans-63" x="89.0625"/>
     <use xlink:href="#DejaVuSans-33" x="144.042969"/>
    </g>
   </g>
   <g id="text_33">
    <!-- iac4 -->
    <g transform="translate(362.064206 322.064852) scale(0.1 -0.1)">
     <use xlink:href="#DejaVuSans-69"/>
     <use xlink:href="#DejaVuSans-61" x="27.783203"/>
     <use xlink:href="#DejaVuSans-63" x="89.0625"/>
     <use xlink:href="#DejaVuSans-34" x="144.042969"/>
    </g>
   </g>
   <g id="text_34">
    <!-- iac5 -->
    <g transform="translate(291.360248 302.862279) scale(0.1 -0.1)">
     <use xlink:href="#DejaVuSans-69"/>
     <use xlink:href="#DejaVuSans-61" x="27.783203"/>
     <use xlink:href="#DejaVuSans-63" x="89.0625"/>
     <use xlink:href="#DejaVuSans-35" x="144.042969"/>
    </g>
   </g>
   <g id="text_35">
    <!-- Hello -->
    <g style="fill: #ff0000" transform="translate(421.253828 97.68) scale(0.17 -0.17)">
     <defs>
      <path id="DejaVuSans-48" d="M 628 4666 
L 1259 4666 
L 1259 2753 
L 3553 2753 
L 3553 4666 
L 4184 4666 
L 4184 0 
L 3553 0 
L 3553 2222 
L 1259 2222 
L 1259 0 
L 628 0 
L 628 4666 
z
" transform="scale(0.015625)"/>
     </defs>
     <use xlink:href="#DejaVuSans-48"/>
     <use xlink:href="#DejaVuSans-65" x="75.195312"/>
     <use xlink:href="#DejaVuSans-6c" x="136.71875"/>
     <use xlink:href="#DejaVuSans-6c" x="164.501953"/>
     <use xlink:href="#DejaVuSans-6f" x="192.285156"/>
    </g>
   </g>
  </g>
 </g>
 <defs>
  <clipPath id="p2e1d076b7b">
   <path d="M 775.44 436.32 
C 775.44 392.638115 766.835621 349.380982 750.119288 309.024183 
C 733.402954 268.667384 708.899756 231.995757 678.012 201.108 
C 647.124243 170.220244 610.452616 145.717046 570.095817 129.000712 
C 529.739018 112.284379 486.481885 103.68 442.8 103.68 
C 399.118115 103.68 355.860982 112.284379 315.504183 129.000712 
C 275.147384 145.717046 238.475757 170.220244 207.588 201.108 
C 176.700244 231.995757 152.197046 268.667384 135.480712 309.024183 
C 118.764379 349.380982 110.16 392.638115 110.16 436.32 
C 110.16 480.001885 118.764379 523.259018 135.480712 563.615817 
C 152.197046 603.972616 176.700244 640.644243 207.588 671.532 
C 238.475757 702.419756 275.147384 726.922954 315.504183 743.639288 
C 355.860982 760.355621 399.118115 768.96 442.8 768.96 
C 486.481885 768.96 529.739018 760.355621 570.095817 743.639288 
C 610.452616 726.922954 647.124243 702.419756 678.012 671.532 
C 708.899756 640.644243 733.402954 603.972616 750.119288 563.615817 
C 766.835621 523.259018 775.44 480.001885 775.44 436.32 
M 442.8 436.32 
C 442.8 436.32 442.8 436.32 442.8 436.32 
C 442.8 436.32 442.8 436.32 442.8 436.32 
C 442.8 436.32 442.8 436.32 442.8 436.32 
C 442.8 436.32 442.8 436.32 442.8 436.32 
C 442.8 436.32 442.8 436.32 442.8 436.32 
C 442.8 436.32 442.8 436.32 442.8 436.32 
C 442.8 436.32 442.8 436.32 442.8 436.32 
C 442.8 436.32 442.8 436.32 442.8 436.32 
C 442.8 436.32 442.8 436.32 442.8 436.32 
C 442.8 436.32 442.8 436.32 442.8 436.32 
C 442.8 436.32 442.8 436.32 442.8 436.32 
C 442.8 436.32 442.8 436.32 442.8 436.32 
C 442.8 436.32 442.8 436.32 442.8 436.32 
C 442.8 436.32 442.8 436.32 442.8 436.32 
C 442.8 436.32 442.8 436.32 442.8 436.32 
C 442.8 436.32 442.8 436.32 442.8 436.32 
z
"/>
  </clipPath>
 </defs>
</svg>
